<?xml version="1.0" encoding="UTF-8"?>
<svg id="Warstwa_1" xmlns="http://www.w3.org/2000/svg" viewBox="0 0 2039.71 1504.37">
  <defs>
    <style>
      .cls-1 {
        fill: #81312a;
      }

      .cls-2 {
        fill: #73889e;
      }

      .cls-3 {
        fill: #143a62;
      }
    </style>
  </defs>
  <g>
    <g>
      <path class="cls-3" d="M274.58,793.79h-99.3v57.43h117.29v44.56H112.13v-240.3h180.8v44.73h-117.65v50.67h99.3v42.91Z"/>
      <path class="cls-3" d="M542.52,655.48v157.29c0,17.82-4.14,33.26-12.41,46.29-8.28,13.04-20.15,22.97-35.62,29.79-15.47,6.82-33.76,10.23-54.87,10.23-31.9,0-57.03-7.59-75.38-22.78-18.35-15.18-27.7-35.98-28.06-62.39v-158.44h63.5v159.6c.72,26.3,14.03,39.44,39.94,39.44,13.07,0,22.96-3.3,29.68-9.9,6.72-6.6,10.07-17.33,10.07-32.18v-156.96h63.14Z"/>
      <path class="cls-3" d="M923.16,814.42c-.84,16.73-5.76,31.5-14.75,44.31-8.99,12.82-21.62,22.75-37.87,29.79-16.25,7.04-34.81,10.56-55.68,10.56-34.42,0-61.52-10.29-81.31-30.86-19.79-20.57-29.68-49.62-29.68-87.14v-11.88c0-23.54,4.47-44.15,13.4-61.81,8.93-17.66,21.8-31.3,38.59-40.93,16.79-9.63,36.22-14.44,58.29-14.44,31.78,0,57.32,7.67,76.64,23.02,19.31,15.35,30.28,36.5,32.92,63.46h-62.96c-.48-14.63-4.5-25.14-12.05-31.52-7.56-6.38-19.07-9.57-34.54-9.57s-27.23,5.39-34.54,16.17c-7.32,10.78-11.15,28-11.51,51.66v17c0,25.64,3.51,43.96,10.52,54.96,7.02,11,19.1,16.5,36.25,16.5,14.51,0,25.6-3.14,33.28-9.41,7.67-6.27,11.75-16.23,12.23-29.87h62.78Z"/>
      <path class="cls-3" d="M1063.2,899.09c-29.86,0-54.03-8.17-72.5-24.51-18.47-16.34-27.7-37.6-27.7-63.79v-4.62c0-18.26,3.69-34.38,11.06-48.36,7.38-13.97,18.14-24.78,32.29-32.43,14.15-7.65,30.94-11.47,50.37-11.47,27.34,0,48.93,7.79,64.76,23.35,15.83,15.57,23.75,37.27,23.75,65.11v21.62h-120.53c2.16,10.01,6.9,17.88,14.21,23.6,7.31,5.72,16.79,8.58,28.42,8.58,19.19,0,34.18-6.16,44.97-18.48l27.7,30.04c-7.56,9.57-18.26,17.19-32.11,22.86-13.85,5.67-28.76,8.5-44.7,8.5ZM1056.37,756.82c-17.75,0-28.31,10.78-31.66,32.35h61.16v-4.29c.24-8.91-2.22-15.82-7.38-20.71-5.16-4.89-12.53-7.34-22.13-7.34Z"/>
      <path class="cls-3" d="M1244.08,717.21l1.98,20.96c13.43-16.17,31.96-24.26,55.59-24.26,20.27,0,35.41,5.56,45.42,16.67,10.01,11.11,15.2,27.84,15.56,50.17v115.03h-60.8v-112.72c0-9.02-1.98-15.65-5.94-19.89-3.96-4.23-11.15-6.35-21.59-6.35-11.87,0-20.69,4.29-26.44,12.87v126.09h-60.62v-178.58h56.85Z"/>
      <path class="cls-3" d="M1485.58,672.81v44.4h32.02v38.62h-32.02v81.7c0,6.71,1.32,11.39,3.96,14.03,2.64,2.64,7.85,3.96,15.65,3.96,6,0,11.03-.33,15.11-.99v39.78c-10.91,3.19-22.31,4.79-34.18,4.79-20.87,0-36.28-4.51-46.23-13.53-9.96-9.02-14.93-22.72-14.93-41.1v-88.63h-24.83v-38.62h24.83v-44.4h60.62Z"/>
      <path class="cls-3" d="M1677.97,767.55l-19.97-1.32c-19.07,0-31.3,5.5-36.7,16.5v113.05h-60.62v-178.58h56.85l1.98,22.94c10.19-17.49,24.4-26.24,42.64-26.24,6.48,0,12.11.66,16.91,1.98l-1.08,51.66Z"/>
      <path class="cls-3" d="M1822.87,895.79c-2.16-3.63-4.08-8.97-5.76-16.01-11.15,12.87-26.75,19.31-46.77,19.31-18.35,0-33.94-5.09-46.77-15.27-12.83-10.18-19.25-22.97-19.25-38.37,0-19.36,7.79-34,23.39-43.9,15.59-9.9,38.26-14.85,68-14.85h18.71v-9.45c0-16.47-7.74-24.71-23.21-24.71-14.39,0-21.59,6.52-21.59,19.57h-60.62c0-17.25,8.01-31.27,24.02-42.03s36.43-16.16,61.25-16.16,44.43,5.56,58.83,16.67c14.39,11.11,21.77,26.35,22.13,45.72v79.06c.24,16.4,3,28.94,8.28,37.63v2.81h-60.62ZM1784.91,859.48c7.56,0,13.82-1.49,18.8-4.46,4.98-2.97,8.54-6.33,10.7-10.07v-28.55h-17.63c-21.11,0-31.66,8.69-31.66,26.08,0,5.06,1.86,9.16,5.58,12.3,3.72,3.14,8.46,4.7,14.21,4.7Z"/>
      <path class="cls-3" d="M1991.51,895.79h-60.8v-253.5h60.8v253.5Z"/>
    </g>
    <g>
      <path class="cls-1" d="M135.17,954.14l15.13,50.16,15.08-50.16h21.5v72.09h-16.38v-16.83l1.58-34.46-16.38,51.29h-10.8l-16.43-51.34,1.58,34.51v16.83h-16.34v-72.09h21.46Z"/>
      <path class="cls-1" d="M194.27,998.95c0-5.35.98-10.11,2.93-14.28,1.95-4.18,4.76-7.39,8.42-9.63,3.66-2.24,7.96-3.37,12.89-3.37,7.54,0,13.48,2.48,17.83,7.45,4.34,4.97,6.52,11.73,6.52,20.28v.59c0,8.35-2.18,14.98-6.54,19.88-4.36,4.9-10.26,7.35-17.71,7.35s-12.92-2.29-17.27-6.86c-4.34-4.57-6.69-10.77-7.03-18.59l-.05-2.82ZM209.95,999.99c0,4.95.73,8.58,2.19,10.89,1.46,2.31,3.61,3.47,6.47,3.47,5.58,0,8.44-4.57,8.56-13.72v-1.68c0-9.61-2.89-14.41-8.66-14.41-5.24,0-8.08,4.14-8.52,12.43l-.05,3.02Z"/>
      <path class="cls-1" d="M247.5,999.05c0-8.48,1.72-15.17,5.17-20.05,3.44-4.88,8.25-7.33,14.43-7.33,4.5,0,8.28,1.88,11.36,5.64v-27.13h15.73v76.05h-14.1l-.79-5.74c-3.23,4.49-7.32,6.73-12.29,6.73-5.99,0-10.74-2.44-14.24-7.33-3.51-4.88-5.26-11.83-5.26-20.85ZM263.19,1000.09c0,9.51,2.61,14.26,7.82,14.26,3.47,0,5.96-1.55,7.45-4.65v-20.4c-1.43-3.17-3.88-4.75-7.35-4.75-4.84,0-7.46,4.16-7.87,12.48l-.05,3.07Z"/>
      <path class="cls-1" d="M327.18,1027.22c-7.73,0-13.98-2.45-18.76-7.35-4.78-4.9-7.17-11.28-7.17-19.14v-1.39c0-5.48.95-10.31,2.86-14.51,1.91-4.19,4.69-7.43,8.35-9.73,3.66-2.29,8.01-3.44,13.03-3.44,7.07,0,12.66,2.34,16.75,7.01,4.1,4.67,6.14,11.18,6.14,19.53v6.49h-31.18c.56,3,1.78,5.36,3.68,7.08s4.34,2.57,7.35,2.57c4.96,0,8.84-1.85,11.64-5.55l7.17,9.01c-1.95,2.87-4.72,5.16-8.31,6.86-3.58,1.7-7.44,2.55-11.57,2.55ZM325.41,984.54c-4.59,0-7.32,3.24-8.19,9.7h15.82v-1.29c.06-2.67-.57-4.74-1.91-6.21-1.33-1.47-3.24-2.2-5.72-2.2Z"/>
      <path class="cls-1" d="M370.97,1026.23h-15.73v-76.05h15.73v76.05Z"/>
      <path class="cls-1" d="M396.88,1026.23h-15.73v-76.05h15.73v76.05Z"/>
      <path class="cls-1" d="M406.14,958.85c0-2.38.81-4.32,2.42-5.84,1.61-1.52,3.71-2.28,6.28-2.28s4.67.76,6.28,2.28c1.61,1.52,2.42,3.47,2.42,5.84s-.81,4.32-2.42,5.84c-1.61,1.52-3.71,2.28-6.28,2.28s-4.67-.76-6.28-2.28c-1.61-1.52-2.42-3.47-2.42-5.84ZM422.8,1026.23h-15.73v-53.57h15.73v53.57Z"/>
      <path class="cls-1" d="M446.58,972.66l.51,6.29c3.47-4.85,8.27-7.28,14.38-7.28,5.24,0,9.16,1.67,11.75,5,2.59,3.33,3.93,8.35,4.03,15.05v34.51h-15.73v-33.82c0-2.71-.51-4.7-1.54-5.97-1.02-1.27-2.89-1.91-5.58-1.91-3.07,0-5.35,1.29-6.84,3.86v37.83h-15.68v-53.57h14.71Z"/>
      <path class="cls-1" d="M483.8,999.05c0-5.41.84-10.2,2.51-14.36,1.68-4.16,4.08-7.37,7.21-9.63,3.13-2.26,6.78-3.39,10.94-3.39,5.24,0,9.34,1.88,12.29,5.64l.56-4.65h14.24v51.54c0,4.72-1.03,8.82-3.09,12.3-2.06,3.48-5.05,6.16-8.96,8.02-3.91,1.86-8.44,2.8-13.59,2.8-3.69,0-7.27-.74-10.73-2.23-3.46-1.49-6.1-3.42-7.94-5.79l6.56-9.8c2.92,3.66,6.76,5.5,11.54,5.5,6.95,0,10.43-3.8,10.43-11.39v-1.68c-3.01,3.53-6.81,5.3-11.4,5.3-6.14,0-11.11-2.5-14.89-7.5-3.79-5-5.68-11.69-5.68-20.08v-.59ZM499.53,1000.09c0,4.39.77,7.86,2.33,10.42,1.55,2.56,3.72,3.84,6.52,3.84,3.38,0,5.85-1.2,7.4-3.61v-22.53c-1.52-2.44-3.96-3.66-7.31-3.66-2.79,0-4.98,1.33-6.56,3.99-1.58,2.66-2.37,6.51-2.37,11.56Z"/>
      <path class="cls-1" d="M619.18,1001.82c-.22,5.02-1.49,9.45-3.82,13.29-2.33,3.85-5.59,6.83-9.8,8.94-4.21,2.11-9.01,3.17-14.4,3.17-8.91,0-15.92-3.09-21.04-9.26-5.12-6.17-7.68-14.89-7.68-26.14v-3.56c0-7.06,1.16-13.24,3.47-18.54,2.31-5.3,5.64-9.39,9.98-12.28,4.34-2.89,9.37-4.33,15.08-4.33,8.22,0,14.83,2.3,19.83,6.91,5,4.6,7.83,10.95,8.52,19.04h-16.29c-.12-4.39-1.16-7.54-3.12-9.46-1.96-1.91-4.93-2.87-8.94-2.87s-7.04,1.62-8.94,4.85c-1.89,3.24-2.89,8.4-2.98,15.5v5.1c0,7.69.91,13.19,2.72,16.49,1.82,3.3,4.94,4.95,9.38,4.95,3.75,0,6.62-.94,8.61-2.82,1.99-1.88,3.04-4.87,3.16-8.96h16.24Z"/>
      <path class="cls-1" d="M650.26,1027.22c-7.73,0-13.98-2.45-18.76-7.35-4.78-4.9-7.17-11.28-7.17-19.14v-1.39c0-5.48.95-10.31,2.86-14.51,1.91-4.19,4.69-7.43,8.35-9.73,3.66-2.29,8.01-3.44,13.03-3.44,7.07,0,12.66,2.34,16.75,7.01,4.1,4.67,6.14,11.18,6.14,19.53v6.49h-31.18c.56,3,1.78,5.36,3.68,7.08s4.34,2.57,7.35,2.57c4.96,0,8.84-1.85,11.64-5.55l7.17,9.01c-1.95,2.87-4.72,5.16-8.31,6.86-3.58,1.7-7.44,2.55-11.57,2.55ZM648.49,984.54c-4.59,0-7.32,3.24-8.19,9.7h15.82v-1.29c.06-2.67-.57-4.74-1.91-6.21-1.33-1.47-3.24-2.2-5.72-2.2Z"/>
      <path class="cls-1" d="M691.91,972.66l.51,6.29c3.47-4.85,8.27-7.28,14.38-7.28,5.24,0,9.16,1.67,11.75,5,2.59,3.33,3.93,8.35,4.03,15.05v34.51h-15.73v-33.82c0-2.71-.51-4.7-1.54-5.97-1.02-1.27-2.89-1.91-5.58-1.91-3.07,0-5.35,1.29-6.84,3.86v37.83h-15.68v-53.57h14.71Z"/>
      <path class="cls-1" d="M749.24,959.34v13.32h8.28v11.59h-8.28v24.51c0,2.01.34,3.42,1.02,4.21.68.79,2.03,1.19,4.05,1.19,1.55,0,2.85-.1,3.91-.3v11.93c-2.82.96-5.77,1.44-8.84,1.44-5.4,0-9.39-1.35-11.96-4.06-2.58-2.71-3.86-6.82-3.86-12.33v-26.59h-6.42v-11.59h6.42v-13.32h15.68Z"/>
      <path class="cls-1" d="M787.77,1027.22c-7.73,0-13.98-2.45-18.76-7.35-4.78-4.9-7.17-11.28-7.17-19.14v-1.39c0-5.48.95-10.31,2.86-14.51,1.91-4.19,4.69-7.43,8.35-9.73,3.66-2.29,8.01-3.44,13.03-3.44,7.07,0,12.66,2.34,16.75,7.01,4.1,4.67,6.14,11.18,6.14,19.53v6.49h-31.18c.56,3,1.78,5.36,3.68,7.08s4.34,2.57,7.35,2.57c4.96,0,8.84-1.85,11.64-5.55l7.17,9.01c-1.95,2.87-4.72,5.16-8.31,6.86-3.58,1.7-7.44,2.55-11.57,2.55ZM786,984.54c-4.59,0-7.32,3.24-8.19,9.7h15.82v-1.29c.06-2.67-.57-4.74-1.91-6.21-1.33-1.47-3.24-2.2-5.72-2.2Z"/>
      <path class="cls-1" d="M845.48,987.76l-5.17-.4c-4.93,0-8.1,1.65-9.49,4.95v33.92h-15.68v-53.57h14.71l.51,6.88c2.64-5.25,6.31-7.87,11.03-7.87,1.68,0,3.13.2,4.38.59l-.28,15.5Z"/>
      <path class="cls-1" d="M877.77,1026.23v-41.99h-7.31v-11.59h7.31v-4.26c0-6.11,1.69-10.84,5.07-14.21,3.38-3.37,8.13-5.05,14.24-5.05,2.23,0,4.68.35,7.35,1.04l.05,12.28c-.96-.3-2.25-.45-3.86-.45-4.75,0-7.12,2.18-7.12,6.54v4.11h9.82v11.59h-9.82v41.99h-15.73Z"/>
      <path class="cls-1" d="M906.57,998.95c0-5.35.98-10.11,2.93-14.28,1.95-4.18,4.76-7.39,8.42-9.63,3.66-2.24,7.96-3.37,12.89-3.37,7.54,0,13.48,2.48,17.83,7.45,4.34,4.97,6.52,11.73,6.52,20.28v.59c0,8.35-2.18,14.98-6.54,19.88-4.36,4.9-10.26,7.35-17.71,7.35s-12.92-2.29-17.27-6.86c-4.34-4.57-6.69-10.77-7.03-18.59l-.05-2.82ZM922.25,999.99c0,4.95.73,8.58,2.19,10.89,1.46,2.31,3.61,3.47,6.47,3.47,5.58,0,8.44-4.57,8.56-13.72v-1.68c0-9.61-2.89-14.41-8.66-14.41-5.24,0-8.08,4.14-8.52,12.43l-.05,3.02Z"/>
      <path class="cls-1" d="M992.25,987.76l-5.17-.4c-4.93,0-8.1,1.65-9.49,4.95v33.92h-15.68v-53.57h14.71l.51,6.88c2.64-5.25,6.31-7.87,11.03-7.87,1.68,0,3.13.2,4.38.59l-.28,15.5Z"/>
      <path class="cls-1" d="M1079.27,991.67c0,6.67-1.04,12.49-3.12,17.45-2.08,4.97-4.95,8.95-8.61,11.96l10.94,9.21-10.1,9.11-14.57-12.48c-1.37.2-2.73.3-4.1.3-5.77,0-10.89-1.42-15.36-4.26-4.47-2.84-7.95-6.9-10.45-12.18-2.5-5.28-3.79-11.35-3.89-18.22v-3.81c0-7.1,1.22-13.34,3.65-18.72,2.44-5.38,5.91-9.54,10.43-12.48,4.51-2.94,9.69-4.41,15.52-4.41s10.86,1.45,15.36,4.36c4.5,2.91,8,7.04,10.5,12.4,2.5,5.36,3.76,11.51,3.79,18.44v3.32ZM1062.65,988.65c0-7.16-1.12-12.6-3.37-16.31-2.25-3.71-5.47-5.57-9.66-5.57s-7.56,1.83-9.73,5.5c-2.17,3.66-3.27,9.03-3.3,16.09v3.32c0,7.1,1.1,12.54,3.3,16.31,2.2,3.78,5.48,5.67,9.82,5.67s7.35-1.86,9.56-5.59c2.22-3.73,3.34-9.09,3.37-16.09v-3.32Z"/>
      <path class="cls-1" d="M1116.58,1020.44c-3.32,4.52-7.8,6.78-13.45,6.78s-9.7-1.71-12.54-5.12c-2.84-3.42-4.26-8.33-4.26-14.73v-34.71h15.68v34.81c0,4.59,2.09,6.88,6.28,6.88,3.6,0,6.16-1.37,7.68-4.11v-37.58h15.78v53.57h-14.71l-.47-5.79Z"/>
      <path class="cls-1" d="M1168.43,1026.23c-.56-1.09-1.06-2.69-1.49-4.8-2.89,3.86-6.92,5.79-12.1,5.79-4.75,0-8.78-1.53-12.1-4.58-3.32-3.05-4.98-6.89-4.98-11.51,0-5.81,2.02-10.2,6.05-13.17,4.03-2.97,9.9-4.46,17.59-4.46h4.84v-2.84c0-4.94-2-7.41-6-7.41-3.72,0-5.58,1.96-5.58,5.87h-15.68c0-5.18,2.07-9.38,6.21-12.61,4.14-3.23,9.42-4.85,15.85-4.85s11.5,1.67,15.22,5c3.72,3.33,5.63,7.91,5.72,13.71v23.72c.06,4.92.78,8.68,2.14,11.29v.84h-15.68ZM1158.61,1015.34c1.95,0,3.58-.45,4.86-1.34,1.29-.89,2.21-1.9,2.77-3.02v-8.57h-4.56c-5.46,0-8.19,2.61-8.19,7.82,0,1.52.48,2.75,1.44,3.69.96.94,2.19,1.41,3.68,1.41Z"/>
      <path class="cls-1" d="M1204.77,972.66l.51,6.29c3.47-4.85,8.27-7.28,14.38-7.28,5.24,0,9.16,1.67,11.75,5,2.59,3.33,3.93,8.35,4.03,15.05v34.51h-15.73v-33.82c0-2.71-.51-4.7-1.54-5.97-1.02-1.27-2.89-1.91-5.58-1.91-3.07,0-5.35,1.29-6.84,3.86v37.83h-15.68v-53.57h14.71Z"/>
      <path class="cls-1" d="M1262.1,959.34v13.32h8.28v11.59h-8.28v24.51c0,2.01.34,3.42,1.02,4.21.68.79,2.03,1.19,4.05,1.19,1.55,0,2.85-.1,3.91-.3v11.93c-2.82.96-5.77,1.44-8.84,1.44-5.4,0-9.39-1.35-11.96-4.06-2.58-2.71-3.86-6.82-3.86-12.33v-26.59h-6.42v-11.59h6.42v-13.32h15.68Z"/>
      <path class="cls-1" d="M1306.26,1020.44c-3.32,4.52-7.8,6.78-13.45,6.78s-9.7-1.71-12.54-5.12c-2.84-3.42-4.26-8.33-4.26-14.73v-34.71h15.68v34.81c0,4.59,2.09,6.88,6.28,6.88,3.6,0,6.16-1.37,7.68-4.11v-37.58h15.78v53.57h-14.71l-.47-5.79Z"/>
      <path class="cls-1" d="M1344.56,972.66l.51,6.29c3.57-4.85,8.36-7.28,14.38-7.28,6.36,0,10.66,2.69,12.89,8.07,3.41-5.38,8.35-8.07,14.8-8.07,10.21,0,15.45,6.57,15.73,19.71v34.86h-15.73v-33.82c0-2.74-.44-4.74-1.3-5.99-.87-1.25-2.45-1.88-4.75-1.88-3.1,0-5.42,1.47-6.94,4.41l.05.69v36.59h-15.73v-33.72c0-2.81-.42-4.83-1.26-6.09-.84-1.25-2.44-1.88-4.79-1.88-3.01,0-5.31,1.47-6.89,4.41v37.28h-15.68v-53.57h14.71Z"/>
      <path class="cls-1" d="M1486.13,967.56h-20.34v58.67h-16.34v-58.67h-19.97v-13.42h56.64v13.42Z"/>
      <path class="cls-1" d="M1512.23,1027.22c-7.73,0-13.98-2.45-18.76-7.35-4.78-4.9-7.17-11.28-7.17-19.14v-1.39c0-5.48.95-10.31,2.86-14.51,1.91-4.19,4.69-7.43,8.35-9.73,3.66-2.29,8.01-3.44,13.03-3.44,7.07,0,12.66,2.34,16.75,7.01,4.1,4.67,6.14,11.18,6.14,19.53v6.49h-31.18c.56,3,1.78,5.36,3.68,7.08s4.34,2.57,7.35,2.57c4.96,0,8.84-1.85,11.64-5.55l7.17,9.01c-1.95,2.87-4.72,5.16-8.31,6.86-3.58,1.7-7.44,2.55-11.57,2.55ZM1510.46,984.54c-4.59,0-7.32,3.24-8.19,9.7h15.82v-1.29c.06-2.67-.57-4.74-1.91-6.21-1.33-1.47-3.24-2.2-5.72-2.2Z"/>
      <path class="cls-1" d="M1560.77,1014.35c2.2,0,3.91-.64,5.12-1.91,1.21-1.27,1.8-3.05,1.77-5.32h14.71c0,5.88-1.98,10.69-5.93,14.46-3.96,3.76-9.05,5.64-15.29,5.64-7.32,0-13.09-2.44-17.31-7.33-4.22-4.88-6.33-11.65-6.33-20.3v-.69c0-5.41.94-10.19,2.82-14.33,1.88-4.14,4.58-7.33,8.12-9.56s7.73-3.34,12.57-3.34c6.55,0,11.74,1.93,15.59,5.79,3.85,3.86,5.77,9.09,5.77,15.7h-14.71c0-2.77-.64-4.9-1.91-6.39-1.27-1.49-2.98-2.23-5.12-2.23-4.06,0-6.44,2.76-7.12,8.27-.22,1.75-.33,4.16-.33,7.23,0,5.38.6,9.11,1.81,11.19s3.13,3.12,5.77,3.12Z"/>
      <path class="cls-1" d="M1604.04,978.4c3.35-4.49,7.63-6.73,12.85-6.73,5.55,0,9.74,1.75,12.57,5.25,2.82,3.5,4.27,8.66,4.33,15.5v33.82h-15.73v-33.42c0-2.84-.54-4.93-1.63-6.26-1.09-1.34-2.93-2-5.54-2-3.23,0-5.51,1.09-6.84,3.27v38.42h-15.68v-76.05h15.68v28.22Z"/>
      <path class="cls-1" d="M1656.63,972.66l.51,6.29c3.47-4.85,8.27-7.28,14.38-7.28,5.24,0,9.16,1.67,11.75,5,2.59,3.33,3.93,8.35,4.03,15.05v34.51h-15.73v-33.82c0-2.71-.51-4.7-1.54-5.97-1.02-1.27-2.89-1.91-5.58-1.91-3.07,0-5.35,1.29-6.84,3.86v37.83h-15.68v-53.57h14.71Z"/>
      <path class="cls-1" d="M1693.72,998.95c0-5.35.98-10.11,2.93-14.28,1.95-4.18,4.76-7.39,8.42-9.63,3.66-2.24,7.96-3.37,12.89-3.37,7.54,0,13.48,2.48,17.83,7.45,4.34,4.97,6.52,11.73,6.52,20.28v.59c0,8.35-2.18,14.98-6.54,19.88-4.36,4.9-10.26,7.35-17.71,7.35s-12.92-2.29-17.27-6.86c-4.34-4.57-6.69-10.77-7.03-18.59l-.05-2.82ZM1709.4,999.99c0,4.95.73,8.58,2.19,10.89,1.46,2.31,3.61,3.47,6.47,3.47,5.58,0,8.44-4.57,8.56-13.72v-1.68c0-9.61-2.89-14.41-8.66-14.41-5.24,0-8.08,4.14-8.52,12.43l-.05,3.02Z"/>
      <path class="cls-1" d="M1765.48,1026.23h-15.73v-76.05h15.73v76.05Z"/>
      <path class="cls-1" d="M1772.87,998.95c0-5.35.98-10.11,2.93-14.28,1.95-4.18,4.76-7.39,8.42-9.63,3.66-2.24,7.96-3.37,12.89-3.37,7.54,0,13.48,2.48,17.83,7.45,4.34,4.97,6.52,11.73,6.52,20.28v.59c0,8.35-2.18,14.98-6.54,19.88-4.36,4.9-10.26,7.35-17.71,7.35s-12.92-2.29-17.27-6.86c-4.34-4.57-6.69-10.77-7.03-18.59l-.05-2.82ZM1788.55,999.99c0,4.95.73,8.58,2.19,10.89,1.46,2.31,3.61,3.47,6.47,3.47,5.58,0,8.44-4.57,8.56-13.72v-1.68c0-9.61-2.89-14.41-8.66-14.41-5.24,0-8.08,4.14-8.52,12.43l-.05,3.02Z"/>
      <path class="cls-1" d="M1826.25,999.05c0-5.41.84-10.2,2.51-14.36,1.68-4.16,4.08-7.37,7.21-9.63,3.13-2.26,6.78-3.39,10.94-3.39,5.24,0,9.34,1.88,12.29,5.64l.56-4.65h14.24v51.54c0,4.72-1.03,8.82-3.09,12.3-2.06,3.48-5.05,6.16-8.96,8.02-3.91,1.86-8.44,2.8-13.59,2.8-3.69,0-7.27-.74-10.73-2.23-3.46-1.49-6.1-3.42-7.94-5.79l6.56-9.8c2.92,3.66,6.76,5.5,11.54,5.5,6.95,0,10.43-3.8,10.43-11.39v-1.68c-3.01,3.53-6.81,5.3-11.4,5.3-6.14,0-11.11-2.5-14.89-7.5-3.79-5-5.68-11.69-5.68-20.08v-.59ZM1841.98,1000.09c0,4.39.77,7.86,2.33,10.42,1.55,2.56,3.72,3.84,6.52,3.84,3.38,0,5.85-1.2,7.4-3.61v-22.53c-1.52-2.44-3.96-3.66-7.31-3.66-2.79,0-4.98,1.33-6.56,3.99-1.58,2.66-2.37,6.51-2.37,11.56Z"/>
      <path class="cls-1" d="M1882.51,958.85c0-2.38.81-4.32,2.42-5.84,1.61-1.52,3.71-2.28,6.28-2.28s4.67.76,6.28,2.28c1.61,1.52,2.42,3.47,2.42,5.84s-.81,4.32-2.42,5.84c-1.61,1.52-3.71,2.28-6.28,2.28s-4.67-.76-6.28-2.28c-1.61-1.52-2.42-3.47-2.42-5.84ZM1899.17,1026.23h-15.73v-53.57h15.73v53.57Z"/>
      <path class="cls-1" d="M1932.91,1027.22c-7.73,0-13.98-2.45-18.76-7.35-4.78-4.9-7.17-11.28-7.17-19.14v-1.39c0-5.48.95-10.31,2.86-14.51,1.91-4.19,4.69-7.43,8.35-9.73,3.66-2.29,8.01-3.44,13.03-3.44,7.07,0,12.66,2.34,16.75,7.01,4.1,4.67,6.14,11.18,6.14,19.53v6.49h-31.18c.56,3,1.78,5.36,3.68,7.08s4.34,2.57,7.35,2.57c4.96,0,8.84-1.85,11.64-5.55l7.17,9.01c-1.95,2.87-4.72,5.16-8.31,6.86-3.58,1.7-7.44,2.55-11.57,2.55ZM1931.14,984.54c-4.59,0-7.32,3.24-8.19,9.7h15.82v-1.29c.06-2.67-.57-4.74-1.91-6.21-1.33-1.47-3.24-2.2-5.72-2.2Z"/>
      <path class="cls-1" d="M1986.52,1011.18c0-1.42-.7-2.56-2.09-3.42-1.4-.86-4.05-1.75-7.96-2.67-3.91-.92-7.14-2.14-9.68-3.64-2.54-1.5-4.48-3.32-5.82-5.47-1.33-2.15-2-4.6-2-7.38,0-4.92,1.91-8.97,5.72-12.16,3.82-3.19,8.81-4.78,14.99-4.78,6.64,0,11.98,1.6,16.01,4.8,4.03,3.2,6.05,7.41,6.05,12.63h-15.73c0-4.29-2.13-6.44-6.38-6.44-1.65,0-3.03.49-4.14,1.46-1.12.97-1.68,2.19-1.68,3.64s.68,2.69,2.05,3.61c1.37.92,3.54,1.68,6.54,2.28,2.99.59,5.62,1.3,7.89,2.13,7.57,2.77,11.36,7.74,11.36,14.9,0,4.89-2.04,8.86-6.12,11.93-4.08,3.07-9.36,4.6-15.85,4.6-4.31,0-8.16-.83-11.54-2.48-3.38-1.65-6.02-3.89-7.91-6.73-1.89-2.84-2.84-5.83-2.84-8.96h14.66c.06,2.48.84,4.28,2.33,5.42s3.4,1.71,5.72,1.71c2.14,0,3.75-.46,4.82-1.39,1.07-.92,1.61-2.13,1.61-3.61Z"/>
    </g>
  </g>
  <path class="cls-1" d="M1287.73,456.39c42.2.65,75.55,33.86,75.47,75.14-.09,42.73-35.51,77.48-77.76,76.26-42.47-1.22-73.61-34.03-73.07-76.98.54-42.9,33.12-75.07,75.37-74.42Z"/>
  <path class="cls-3" d="M1114.82,362.45c-.63-40.56,31.45-74.6,70.98-75.31,39.24-.71,73.45,32.34,74.73,72.19,1.28,39.87-30.97,73.53-71.5,74.6-40.36,1.07-73.59-30.94-74.22-71.48Z"/>
  <path class="cls-3" d="M901.6,1222.11c-40.31.43-73.79-31.65-74.58-71.48-.8-40.2,31.01-72.96,71.76-73.9,41.56-.96,73.29,29.65,73.63,71.03.35,41.84-30.2,73.92-70.81,74.35Z"/>
  <path class="cls-3" d="M1038.17,304.55c-38.71.44-72.3-32.43-71.93-70.38.38-38.46,30.54-68.62,69.23-69.21,39.65-.6,69.92,27.65,71.22,66.48,1.32,39.55-29.72,72.66-68.52,73.11Z"/>
  <path class="cls-1" d="M1045.62,1206.21c39.62.34,70.26,32.13,69.21,71.8-1.03,38.85-30.95,67.52-70.22,67.3-40.94-.24-69.71-30.2-68.65-71.48,1.02-39.43,30.4-67.95,69.65-67.61Z"/>
  <path class="cls-1" d="M1233.03,1412.99c-36.78-.16-67.74-31.16-67.3-67.39.45-37.09,31.19-67.96,67.41-67.71,36.27.25,67.39,31.63,67.35,67.91-.04,36.76-30.75,67.34-67.46,67.19Z"/>
  <path class="cls-3" d="M915.39,164.19c-.13,38.24-28.84,67.54-66.2,67.54-37.21,0-67-29.73-67.07-66.96-.08-37.83,28.53-66.59,66.58-66.96,38.09-.36,66.82,28.23,66.69,66.37Z"/>
  <path class="cls-3" d="M642.23,228.78c-34.59.77-64.15-27.24-65.22-61.81-1.14-36.87,26.75-66.09,63.42-66.44,36.14-.34,66.47,29.26,66.17,64.59-.29,33.54-29.96,62.89-64.36,63.66Z"/>
  <path class="cls-1" d="M1438.94,1408.78c-35.85-.56-63.14-27.95-63.03-63.27.11-36.06,29.58-64.15,66.43-63.32,35.24.79,63.2,28.86,63.39,63.63.2,36.01-29.02,63.56-66.79,62.97Z"/>
  <path class="cls-3" d="M452.17,295.86c-33.04-.79-61.65-30.33-60.86-62.84.81-33.25,29.51-60.09,63.51-59.42,34.59.69,61.2,28,60.48,62.05-.7,33.03-30.02,60.99-63.13,60.2Z"/>
  <path class="cls-1" d="M1628.36,1214.28c33.34-.21,61.43,27.83,61.49,61.37.06,33.86-27.46,61.53-61.2,61.55-33.71.01-61.51-27.57-61.68-61.21-.17-33.24,27.94-61.49,61.39-61.71Z"/>
  <path class="cls-2" d="M1077.63,598.81c-35.27-.2-59.94-25.64-59.36-61.2.55-33.23,26.01-58.75,58.97-59.1,33.93-.36,61.36,26.45,61.61,60.21.25,33.99-26.54,60.29-61.22,60.09Z"/>
  <path class="cls-1" d="M1837.26,1149.16c-.16,33.1-27.03,59.52-59.74,58.74-31.13-.74-56.73-27-57.05-58.52-.33-32.8,26.8-59.25,59.97-58.46,32.08.77,56.98,26.28,56.82,58.23Z"/>
  <path class="cls-3" d="M304.12,418.51c-32.77.64-57.92-22.77-58.96-54.9-1.09-33.67,23.86-60.47,56.71-60.93,33.59-.47,58.69,24.61,58.73,58.65.04,33.01-23.19,56.52-56.48,57.18Z"/>
  <path class="cls-2" d="M997.25,399.65c.46,33.21-25.37,58.79-59.03,58.45-31.98-.32-56.06-25.38-55.81-58.1.24-31.98,25.32-56.93,57.11-56.82,32.13.11,57.29,24.72,57.73,56.47Z"/>
  <path class="cls-3" d="M147.67,531.56c.17-31.45,23.9-54.57,55.76-54.31,31.39.25,55.84,24.57,55.41,55.1-.43,30.93-24.88,54.68-56.18,54.56-31.05-.12-55.15-24.37-54.99-55.34Z"/>
  <path class="cls-2" d="M799.95,347.15c.2,30.28-25.3,56.47-54.79,56.27-29.53-.2-55.15-26.67-54.66-56.47.48-29.02,24.58-53.59,53.25-54.29,30.22-.73,56.01,24.27,56.2,54.49Z"/>
  <path class="cls-2" d="M1390.85,1162.47c.17,30.22-25.23,55.63-55.14,55.16-28.86-.45-52.5-24.32-53.36-53.9-.91-30.93,22.7-55.6,53.64-56.04,30.94-.44,54.68,23.27,54.87,54.77Z"/>
  <path class="cls-2" d="M602.7,400.33c.1,28.3-22.72,51.52-50.92,51.83-29.4.31-54.22-24.17-53.64-52.91.55-27.28,25.18-50.59,53-50.17,28.56.44,51.46,23.2,51.55,51.25Z"/>
  <path class="cls-2" d="M1929.56,509.22c-.37,26.31-23.3,48.56-50.27,48.77-28.65.23-50.81-22.36-50.31-51.28.45-26.35,23.52-49.34,49.68-49.5,26.94-.17,51.29,24.71,50.9,52.01Z"/>
  <path class="cls-2" d="M411.16,587.32c-27.36-.44-48.21-22.53-47.41-50.23.75-26.24,21.19-45.75,48.2-46.01,27.65-.27,49.56,21.3,49.2,48.43-.36,27.52-22.05,48.26-49.99,47.81Z"/>
  <path class="cls-2" d="M302.18,1125.76c26.35-.39,47.91,19.78,48.8,45.64.94,27.31-20.89,49.03-48.82,48.58-26.44-.42-47.36-21.19-47.47-47.12-.1-25.31,21.49-46.72,47.5-47.1Z"/>
  <path class="cls-2" d="M1826.49,336.77c.09,26.34-20.83,47.79-47.02,48.21-25.97.41-47.71-20.86-48.16-47.13-.47-27.01,19.49-47.07,47-47.26,27.67-.18,48.09,19.39,48.18,46.18Z"/>
  <path class="cls-2" d="M1583.08,208.71c.93-24.53,22.5-44.37,47.23-43.44,25.01.95,44.37,21.87,43.4,46.89-.98,25.34-21.46,44.24-46.83,43.22-25.36-1.02-44.74-21.68-43.8-46.67Z"/>
  <path class="cls-2" d="M886.88,566.18c.42,26.46-18.28,45.54-44.53,45.44-24.83-.1-43.94-17.92-45.22-42.19-1.3-24.55,19.04-46.74,43.58-47.54,25.63-.84,45.75,18.47,46.17,44.29Z"/>
  <path class="cls-2" d="M454.3,1255.27c26.52.41,44.01,18.73,43.4,45.46-.6,26.19-19.54,44.77-45.23,44.36-25.29-.4-43.91-20.11-43.57-46.12.34-26.32,18.83-44.11,45.4-43.7Z"/>
  <path class="cls-2" d="M1711.88,516.79c-1.29,24.25-21.27,42.34-45.17,40.9-23.69-1.43-42.43-22.08-41.22-45.41,1.22-23.4,21.73-41.54,45.77-40.49,24.54,1.08,41.92,20.34,40.61,45Z"/>
  <path class="cls-2" d="M683.77,1370.53c-.68,24.11-20.56,43.26-44.11,42.51-23.16-.74-41.71-21.6-40.72-45.79.95-23.19,19.17-40.5,42.52-40.39,24.61.11,43.01,19.09,42.32,43.67Z"/>
  <path class="cls-2" d="M1441.31,183.67c-24.09.26-43.16-18.95-43.03-43.34.13-24.69,18.81-43.45,43.22-42.4,26,1.11,39.24,16.18,40.83,41.29,1.59,25.04-16.65,44.19-41.03,44.45Z"/>
  <path class="cls-2" d="M690.08,567.6c-.3,22.73-19.13,41.33-41.98,41.48-22.06.14-42.34-19.44-42.68-41.22-.36-23.07,21.03-44.06,44.08-43.24,22.61.8,40.88,20.15,40.58,42.98Z"/>
  <path class="cls-2" d="M1501.34,566.21c-.58,23.32-18.52,40.34-42.51,40.35-25.13,0-43.34-19.07-41.88-43.88,1.35-22.95,20.48-39.87,43.98-38.9,23.6.98,40.99,19.24,40.41,42.44Z"/>
  <path class="cls-2" d="M1530.09,335.57c23.71.18,40.71,17.69,39.28,41.79-1.43,24.18-14.99,37.81-39.24,38.9-22.74,1.03-41.82-18.02-41.83-40.33,0-22.36,18.81-40.55,41.79-40.37Z"/>
  <path class="cls-2" d="M600.4,1147.98c.54,21.72-18.78,41.59-40.79,41.96-23.19.39-41.61-17.41-40.57-40.96,1.04-23.69,13.04-38.55,38.1-39.72,23.47-1.1,42.71,16.35,43.26,38.72Z"/>
  <path class="cls-2" d="M847.65,1408.91c-25.16-1.19-37.64-15.56-38.52-39.59-.83-22.77,20.08-43.49,41.59-40.67,22.9,3,38.12,15.95,38.99,40.69.81,23.14-17.67,40.06-42.06,39.57Z"/>
  <path class="cls-2" d="M1272.72,142.57c-3.04,21.9-13.89,37.68-39.14,38.5-22.93.75-41.74-18.22-41.51-40.9.22-22.41,19.96-41.29,42.82-39.43,24.32,1.98,36.96,16.14,37.83,41.83Z"/>
  <path class="cls-2" d="M773.99,1208.06c-1.63,18.93-15.99,31.85-38.27,31.36-22.23-.49-36.61-13.83-37.06-37.76-.41-21.91,18.81-40.04,40.05-38.61,20.38,1.38,36.02,19.11,35.28,45.01Z"/>
  <path class="cls-2" d="M1331.71,361.9c-19.74-1.94-32.88-14.83-32.87-38.02.02-23.35,13.27-36.57,36.8-37.53,22.19-.91,39.71,17.53,38.76,39.57-.9,20.95-17.76,36.49-42.69,35.98Z"/>
  <path class="cls-2" d="M1214.31,1140.71c-1.63,18.93-15.99,31.85-38.27,31.36-22.23-.49-36.61-13.83-37.06-37.76-.41-21.91,18.81-40.04,40.05-38.61,20.38,1.38,36.02,19.11,35.28,45.01Z"/>
  <path class="cls-2" d="M1562.96,1129.3c-1.63,18.93-15.99,31.85-38.27,31.36-22.23-.49-36.61-13.83-37.06-37.76-.41-21.91,18.81-40.04,40.05-38.61,20.38,1.38,36.02,19.11,35.28,45.01Z"/>
  <path class="cls-2" d="M1811.09,634.96c-1.63,18.93-15.99,31.85-38.27,31.36-22.23-.49-36.61-13.83-37.06-37.76-.41-21.91,18.81-40.04,40.05-38.61,20.38,1.38,36.02,19.11,35.28,45.01Z"/>
</svg>